<svg xmlns="http://www.w3.org/2000/svg" viewBox="790 270 640 640" fill="none">
  <path d="m1390.88,532.7c-10.25-23.04-27.25-38.84-51.01-47.31-15.48-5.52-31.45-6.42-47.61-4.39-11.5,1.45-22.4,5.06-32.82,10.14-11.55,5.64-22.01,12.92-31.95,20.99-10.23,8.31-19.67,17.49-29.11,26.66-.47.45-.83,1.02-1.4,1.72,8.49,8.61,16.82,17.18,25.51,25.9,1.05-1,1.82-1.74,2.58-2.48,4.35-4.19,8.65-8.44,13.07-12.56,5.35-4.99,10.96-9.68,16.88-13.99,7.76-5.64,15.94-10.52,24.95-13.92,12.04-4.55,24.38-6.05,37.04-3.27,12.16,2.67,22.17,8.89,29.84,18.74,7.11,9.13,10.71,19.61,11.58,31.04.82,10.72-1.16,20.94-6.12,30.55-11.32,21.91-35.38,33.91-59.99,29.6-9.17-1.6-17.59-5.03-25.55-9.71-9.04-5.32-17.15-11.88-24.78-19.02-11.38-10.66-22.59-21.5-33.53-32.62-11.49-11.67-23.05-23.27-34.67-34.81-9.14-9.07-18.59-17.8-28.7-25.79-9.67-7.64-19.91-14.38-31.17-19.48-9.76-4.43-19.93-7.44-30.61-8.3-9.35-.75-18.69-.39-27.95,1.46-21.87,4.38-40.39,14.54-55.01,31.52-13.91,16.15-21.38,34.92-22.7,56.13-.39,6.23-.19,12.47.58,18.68,1.39,11.2,4.24,21.98,9.23,32.14,5.85,11.9,13.73,22.17,24.25,30.34,16.47,12.8,35.34,18.6,56.01,19.13,5.47.14,10.9-.29,16.33-.96,8.37-1.04,16.46-3.12,24.32-6.13,4.99-1.91,9.81-4.14,14.48-6.64,1.14,7.6,2.27,18.82,3.48,26.29.1.59.83,2.59,1.76,2.59s2.33-.86,2.76-1.13c3.13-1.92,7.25-11.58,7.25-11.58l10.36-33.89c5.09-4.21,10.09-8.54,15.14-12.8.81-.68,1.49-1.54,2.17-2.37,5.79-7.03,6-16.21.03-23.32-4.62-5.5-10.59-7.77-17.78-6.21-3.51.76-6.53,2.5-9.27,4.78-4.49,3.74-8.94,7.55-13.5,11.22-8.86,7.14-18.45,13.07-29.19,16.98-11.3,4.12-22.87,5.66-34.77,3.3-12.86-2.54-23.52-8.83-31.43-19.3-9.84-13.02-13.29-27.88-10.94-43.88,2.32-15.8,10.28-28.41,23.31-37.73,7.86-5.62,16.66-8.93,26.25-9.88,9.65-.95,19.06.37,28.16,3.78,8.01,3,15.3,7.28,22.21,12.25,9.05,6.52,17.18,14.09,25.14,21.86,8.23,8.04,16.34,16.2,24.49,24.32,12.84,12.8,25.68,25.61,38.52,38.42,8.85,8.82,18.11,17.17,28.13,24.66,9.72,7.27,19.97,13.62,31.25,18.22,11.22,4.58,22.88,7.08,35.02,7.19,6.45.06,12.85-.53,19.19-1.7,11.71-2.18,22.76-6.15,32.97-12.3,17.05-10.27,29.55-24.63,37.78-42.69,4.28-9.39,6.75-19.32,7.6-29.58.59-7.08.49-14.19-.31-21.29-1.15-10.24-3.57-20.13-7.76-29.55z" fill="#3B82F6"/>
  <path d="m1076.6,594.38c-3.93-.98-7.33.07-10.22,2.81-1.29,1.22-1.31,2.27-.15,3.55.46.5.99.94,1.53,1.36,9.1,7.03,18.2,14.06,27.31,21.07.52.4,1.13.7,1.61.99,8.84-3.07,24.17-12.37,27.49-16.74-.85-.3-1.63-.63-2.43-.85-12.87-3.5-25.75-6.99-38.63-10.48-2.16-.59-4.32-1.18-6.5-1.72z" fill="#8B5CF6"/>
</svg>
